<svg xmlns="http://www.w3.org/2000/svg" width="176" height="46" viewBox="0 0 176 46">
  <defs>
    <style>
      .cls-1 {
        fill: #0ab85e;
        fill-rule: evenodd;
      }
    </style>
  </defs>
  <path id="Logo" class="cls-1" d="M71.21,24.993q-1.771-1.878-6.811-3.729a41.6,41.6,0,0,1-4.963-2.112,5.744,5.744,0,0,1-1.874-1.539,3.259,3.259,0,0,1-.582-1.956A2.988,2.988,0,0,1,58.53,13a8.83,8.83,0,0,1,4.6-.965A19.268,19.268,0,0,1,69.8,13.387,0.93,0.93,0,0,0,71.21,13l0.753-1.739a0.93,0.93,0,0,0-.606-1.39,22.257,22.257,0,0,0-7.915-1.463,13.043,13.043,0,0,0-7.729,2.021A6.43,6.43,0,0,0,52.9,15.944a6.61,6.61,0,0,0,.814,3.364,7.714,7.714,0,0,0,2.482,2.517,30.21,30.21,0,0,0,5.622,2.595,22.512,22.512,0,0,1,5.6,2.8,3.745,3.745,0,0,1-.375,6.154,10.155,10.155,0,0,1-5.17,1.082,18.129,18.129,0,0,1-4.511-.6c-0.56-.144-1.383-0.422-2.024-0.648a0.9,0.9,0,0,0-1.345.559l-0.6,1.453a0.962,0.962,0,0,0,.449,1.448,19.5,19.5,0,0,0,7.925,1.361q5.325,0,8.272-2.164a7.182,7.182,0,0,0,2.947-6.155A6.611,6.611,0,0,0,71.21,24.993Zm69.762,11.9c1.484-3.925,8.686-23.274,10.209-27.3,0.378-.881-0.614-0.75-0.614-0.75H147.5a0.852,0.852,0,0,0-.895.691c-3.375,9.339-5.555,15.517-6.539,18.342a58.415,58.415,0,0,0-1.8,5.723h-0.207q-0.363-1.773-2.431-7.718S130.9,12.631,129.769,9.507a0.9,0.9,0,0,0-.931-0.664H125.63s-0.768-.131-0.427.736c1.51,3.994,8.706,23.328,10.207,27.3a1.125,1.125,0,0,0,.714.727h4.05A1.148,1.148,0,0,0,140.971,36.9ZM176,36.726V18.9c0-3.643-.845-6.293-2.567-7.95s-3.739-2.485-7.15-2.485a11.938,11.938,0,0,0-5.3,1.158,8.778,8.778,0,0,0-3.7,3.266h-0.207s-0.4-2.376-.6-3.439a0.686,0.686,0,0,0-.759-0.557H153.6a0.641,0.641,0,0,0-.723.722V36.739a0.7,0.7,0,0,0,.695.866h2.864a0.7,0.7,0,0,0,.709-0.863V22.547c0-3.712.73-6.376,2.108-7.989s3.549-2.42,6.513-2.42a5.16,5.16,0,0,1,4.385,1.717,7.483,7.483,0,0,1,1.576,5.2V36.727c0,0.969.692,0.878,0.692,0.878h2.874S176,37.7,176,36.726Zm-51.59.34V18c0-3.338-.957-5.763-2.586-7.276s-4.476-2.269-7.854-2.269a19.725,19.725,0,0,0-5,.652,20.479,20.479,0,0,0-3.846,1.414c-0.97.379-.469,1.069-0.469,1.069l0.747,1.877s0.127,0.8,1.316.275a17.545,17.545,0,0,1,7-1.715c2.1,0,3.976.535,4.933,1.6a7.293,7.293,0,0,1,1.434,4.968v1.773l-5.152.156q-13.726.417-13.726,9.075a8.027,8.027,0,0,0,2.391,6.233,9.408,9.408,0,0,0,6.6,2.191c2.1,0,4.212-.028,5.616-0.663a12.442,12.442,0,0,0,4.571-3.571h0.385s0.082,2.247.121,3.262a0.524,0.524,0,0,0,.507.526h2.484A0.5,0.5,0,0,0,124.405,37.066Zm-17.3-3.832a4.48,4.48,0,0,1-1.409-3.573,4.848,4.848,0,0,1,2.262-4.42q2.262-1.421,7.38-1.6l4.636-.183v2.582a8.241,8.241,0,0,1-2.288,6.207,9.546,9.546,0,0,1-6.639,2.217A5.811,5.811,0,0,1,107.1,33.234Zm-8.847,3.832V18c0-3.338-.957-5.763-2.585-7.276S91.193,8.46,87.815,8.46a19.719,19.719,0,0,0-5,.652,20.471,20.471,0,0,0-3.846,1.414C78,10.905,78.5,11.6,78.5,11.6l0.747,1.877s0.127,0.8,1.316.275a17.545,17.545,0,0,1,7-1.715c2.1,0,3.976.535,4.933,1.6A7.291,7.291,0,0,1,93.924,18.6v1.773l-5.153.156q-13.726.417-13.726,9.075a8.026,8.026,0,0,0,2.391,6.233,9.409,9.409,0,0,0,6.6,2.191c2.1,0,4.211-.028,5.616-0.663A12.45,12.45,0,0,0,94.229,33.8h0.385s0.082,2.247.121,3.262a0.524,0.524,0,0,0,.506.526h2.484A0.5,0.5,0,0,0,98.255,37.066Zm-17.3-3.832a4.479,4.479,0,0,1-1.409-3.573,4.848,4.848,0,0,1,2.262-4.42q2.262-1.421,7.38-1.6l4.636-.183v2.582a8.24,8.24,0,0,1-2.288,6.207,9.547,9.547,0,0,1-6.639,2.217A5.811,5.811,0,0,1,80.952,33.234ZM16.117,0H30.109c4.64,0,6.961,0,9.458.786a9.794,9.794,0,0,1,5.868,5.839c0.79,2.485.79,4.794,0.79,9.412V29.963c0,4.618,0,6.927-.79,9.412a9.794,9.794,0,0,1-5.868,5.839C37.07,46,34.75,46,30.109,46H16.117c-4.64,0-6.961,0-9.458-.786A9.794,9.794,0,0,1,.791,39.375C0,36.889,0,34.581,0,29.963V16.038c0-4.618,0-6.927.79-9.412A9.793,9.793,0,0,1,6.658.786C9.156,0,11.476,0,16.117,0h0m0.941,3.1H29.166c4.016,0,6.561,0,8.723.68A6.853,6.853,0,0,1,42.428,8.3c0.683,2.15.683,4.683,0.683,8.679V29.024c0,4,0,6.528-.683,8.679a6.853,6.853,0,0,1-4.539,4.516c-2.161.68-4.707,0.68-8.723,0.68H17.058c-4.016,0-6.561,0-8.723-.68A6.853,6.853,0,0,1,3.8,37.7c-0.683-2.151-.683-4.683-0.683-8.679V16.977c0-4,0-6.528.683-8.679A6.853,6.853,0,0,1,8.335,3.782C10.5,3.1,13.042,3.1,17.058,3.1h0M33.573,39.8H26.027a0.707,0.707,0,0,1-.477-1.2c3.869-4.137,8.7-5.575,13.293-7.1a0.566,0.566,0,0,1,.708.626v1.564A5.816,5.816,0,0,1,33.573,39.8ZM19.4,39.027A30.711,30.711,0,0,0,6.542,17.66a0.677,0.677,0,0,1-.314-0.634V12.652c0-4.811,3.263-6,4.775-6a0.787,0.787,0,0,1,.738.379c4.57,9.918,7.42,16.195,9.182,31.149,0.009,0.292.055,0.431,0.232-.01C22.4,35.45,28.28,21.593,25.942,7.4a0.658,0.658,0,0,1,.635-0.765h7a5.7,5.7,0,0,1,5.979,6.012V18.8a0.656,0.656,0,0,1-.374.607A32.489,32.489,0,0,0,22.823,39.1a0.727,0.727,0,0,1-.672.7H20.015C19.587,39.8,19.5,39.629,19.4,39.027Zm-7.133.776c-3.62,0-6.039-2.229-6.039-6.115v-0.4a0.631,0.631,0,0,1,.741-0.655c3.667,1.124,7.593,2.256,10.462,6.036A0.708,0.708,0,0,1,16.9,39.8H12.267Z"/>
</svg>
